<?xml version="1.0" encoding="UTF-8"?>
<svg xmlns="http://www.w3.org/2000/svg" viewBox="0 0 9114 3292" fill="#000000" role="img" aria-label="Trimoai">
  <rect width="100%" height="100%" fill="#FFFFFF"/>
  <g transform="translate(980 2404) scale(1 -1)" fill="#000000">
    <path d="M0 1002H292V1544H0Z M0 0H292V542H0Z M0 542H124V1002H0Z"/>
    <g transform="translate(220 0)">
      <path d="M1113 1325V0H880V1325H525V1544H1467V1325Z M1580 974H1805V887Q1867 952 1915 976Q1964 1001 2031 1001Q2120 1001 2217 943L2114 737Q2050 783 1989 783Q1805 783 1805 505V0H1580Z M2519 974V0H2294V974ZM2260 1379Q2260 1438 2303.0 1481.0Q2346 1524 2406 1524Q2467 1524 2510 1481Q2553 1439 2553 1378Q2553 1317 2510 1274Q2468 1231 2407 1231Q2346 1231 2303.0 1274.0Q2260 1317 2260 1379Z M2752 974H2977V884Q3042 952 3088 976Q3137 1001 3211 1001Q3376 1001 3472 857Q3578 1001 3759 1001Q4088 1001 4088 602V0H3862V541Q3862 681 3828 739Q3793 798 3713 798Q3620 798 3577.5 728.0Q3535 658 3535 503V0H3309V538Q3309 798 3159 798Q3064 798 3020.5 727.0Q2977 656 2977 503V0H2752Z M4274 494Q4274 705 4425.0 853.0Q4576 1001 4793 1001Q5011 1001 5163 852Q5313 703 5313 486Q5313 267 5162 119Q5010 -28 4789 -28Q4570 -28 4422 122Q4274 270 4274 494ZM4504 490Q4504 344 4582 259Q4662 173 4793 173Q4925 173 5004.0 258.0Q5083 343 5083 485Q5083 627 5004 712Q4924 798 4793 798Q4664 798 4584.0 712.0Q4504 626 4504 490Z M6217 974H6443V0H6217V102Q6078 -28 5918 -28Q5716 -28 5584 118Q5453 267 5453 490Q5453 709 5584.0 855.0Q5715 1001 5912 1001Q6082 1001 6217 861ZM5683 490Q5683 350 5758 262Q5835 173 5952 173Q6077 173 6154 259Q6231 348 6231 485Q6231 622 6154 711Q6077 798 5954 798Q5838 798 5760 710Q5683 621 5683 490Z M6900 974V0H6675V974ZM6641 1379Q6641 1438 6684.0 1481.0Q6727 1524 6787 1524Q6848 1524 6891 1481Q6934 1439 6934 1378Q6934 1317 6891 1274Q6849 1231 6788 1231Q6727 1231 6684.0 1274.0Q6641 1317 6641 1379Z"/>
    </g>
  </g>
</svg>
